Coordinates
version=1
nRows=8
nColumns=42
inDegrees=yes

Units are S.I. units (second, meters, Newtons, ...)
If the header above contains a line with 'inDegrees', this indicates whether rotational values are in degrees (yes) or radians (no).

endheader
time	pelvis_tilt	pelvis_list	pelvis_rotation	pelvis_tx	pelvis_ty	pelvis_tz	hip_flexion_r	hip_adduction_r	hip_rotation_r	knee_angle_r	knee_adduction_r	knee_angle_r_beta	ankle_angle_r	subtalar_angle_r	mtp_angle_r	hip_flexion_l	hip_adduction_l	hip_rotation_l	knee_angle_l	knee_adduction_l	knee_angle_l_beta	ankle_angle_l	subtalar_angle_l	mtp_angle_l	lumbar_extension	lumbar_bending	lumbar_rotation	arm_flex_r	arm_add_r	arm_rot_r	elbow_flex_r	pro_sup_r	wrist_flex_r	wrist_dev_r	arm_flex_l	arm_add_l	arm_rot_l	elbow_flex_l	pro_sup_l	wrist_flex_l	wrist_dev_l
      1.62000000	      9.92719096	     -3.58300979	     -2.42853505	      0.72858164	      0.87756572	     -0.23891048	      0.68503505	      8.41334528	     -5.43861688	     27.35835470	     -3.59696993	      0.47749337	     19.86019475	      1.50668639	     -7.50385630	     -5.14331478	     -8.11780597	    -19.58450859	     66.73796759	    -12.50496105	      1.16479727	      0.91399069	    -13.90398778	     -7.50385630	    -22.29345517	      1.37796373	     -3.51974331	     -0.75246039	     -1.23863045	    -24.53064928	     35.52007218	     90.00000001	      0.00000000	      0.00000000	     -1.02799748	     -5.34019931	    -14.42617120	     43.70230090	     90.00000001	      0.00000000	      0.00000000
      1.63000000	      9.96376528	     -3.08560993	     -2.36005950	      0.73930083	      0.87927811	     -0.23758163	     -0.85175322	      7.99820350	     -4.75151483	     25.85834880	     -3.42726060	      0.45131333	     20.34318121	      2.15815468	     -7.50377781	     -3.23673492	     -7.47392480	    -19.32678682	     67.71631202	    -13.02400357	      1.18187260	      2.95725895	    -14.00271848	     -7.50377781	    -22.32387968	      0.78809553	     -3.23711674	     -0.91259721	     -1.20127922	    -23.68365911	     36.72899462	     90.00000001	      0.00000000	      0.00000000	     -0.92987247	     -5.34637398	    -14.44593981	     43.21682142	     90.00000001	      0.00000000	      0.00000000
      1.64000000	     10.14423420	     -2.61967459	     -2.50607059	      0.74988388	      0.88099387	     -0.23598478	     -2.37013682	      7.59008665	     -4.38358222	     24.72912090	     -3.42384070	      0.43160458	     20.56368271	      2.59763761	     -7.50369677	     -1.61215560	     -6.97465580	    -19.11764713	     68.37725308	    -13.04387501	      1.19340820	      4.47080270	    -13.50127358	     -7.50369677	    -22.53495521	      0.14804572	     -2.69183158	     -1.01413516	     -1.23276070	    -22.77952128	     37.73785956	     90.00000001	      0.00000000	      0.00000000	     -0.85282909	     -5.29588564	    -14.50220801	     42.96770546	     90.00000001	      0.00000000	      0.00000000
      1.65000000	     10.32478902	     -2.17552560	     -2.67812855	      0.76042103	      0.88253612	     -0.23448055	     -3.89716653	      7.16661921	     -4.04485885	     23.57333166	     -3.37534921	      0.41143225	     20.75246009	      3.02280274	     -7.50360937	     -0.04676629	     -6.47902692	    -18.89399699	     68.75060040	    -12.93582990	      1.19992434	      6.00696562	    -12.83214375	     -7.50360937	    -22.74130495	     -0.44436593	     -2.12242321	     -1.11762610	     -1.33198089	    -21.81854951	     38.78891261	     90.00000001	      0.00000000	      0.00000000	     -0.81271802	     -5.27633234	    -14.60437222	     42.77812708	     90.00000001	      0.00000000	      0.00000000
      1.66000000	     10.67416371	     -1.83987730	     -2.91442414	      0.77109127	      0.88413578	     -0.23288879	     -5.71417588	      6.87257028	     -3.56293883	     22.19330370	     -3.36618435	      0.38734622	     20.83293461	      3.32843115	     -7.50344905	      1.17334534	     -6.12005167	    -18.68379037	     68.68020589	    -12.62469243	      1.19869572	      7.59916067	    -11.77930692	     -7.50344905	    -23.10555394	     -0.95201170	     -1.49276163	     -1.31797206	     -1.59182882	    -20.24315249	     40.01039559	     90.00000001	      0.00000000	      0.00000000	     -0.80175933	     -5.18611013	    -14.81175259	     42.63853925	     90.00000001	      0.00000000	      0.00000000
      1.67000000	     10.54975813	     -1.47006371	     -3.13723139	      0.78141485	      0.88481427	     -0.23127689	     -6.67316140	      6.51561480	     -3.88286921	     21.43145416	     -3.46663862	      0.37404944	     20.86663086	      3.47505017	     -7.50340102	      3.06082981	     -5.79804075	    -18.64987296	     68.65442446	    -12.40478772	      1.19824575	      8.43045082	    -11.52881268	     -7.50340102	    -22.95922918	     -1.48181382	     -0.85768402	     -1.20263613	     -1.60135682	    -20.04077273	     40.60358922	     90.00000001	      0.00000000	      0.00000000	     -0.86888386	     -5.16379433	    -14.86291983	     42.67398028	     90.00000001	      0.00000000	      0.00000000
      1.68000000	     10.41691689	     -1.07437870	     -3.19549016	      0.79169468	      0.88538421	     -0.23019964	     -7.87219942	      6.13523420	     -3.48904629	     20.13915181	     -3.38707014	      0.35149451	     21.12941318	      4.12637142	     -7.50333210	      4.85051880	     -5.26058891	    -18.17801008	     68.17706173	    -12.03365153	      1.18991420	      9.99781733	    -11.44201802	     -7.50333210	    -22.82931167	     -1.90390062	     -0.48681540	     -1.25586090	     -1.66104050	    -19.55886617	     41.84905766	     90.00000001	      0.00000000	      0.00000000	     -0.91073718	     -5.12434333	    -15.00886054	     42.45907066	     90.00000001	      0.00000000	      0.00000000
      1.69000000	     10.71705540	     -0.85686923	     -3.36104837	      0.80249551	      0.88626921	     -0.22888564	     -9.68678366	      5.89410070	     -3.20110255	     18.62533072	     -3.29767250	      0.32507335	     21.19146109	      4.72889301	     -7.50320469	      5.91428101	     -5.01402120	    -17.53299567	     67.31644947	    -11.09722434	      1.17489368	     11.02388297	    -11.34180017	     -7.50320469	    -23.09893810	     -2.21762120	      0.09406115	     -1.41200385	     -1.92836945	    -18.49812508	     43.02598752	     90.00000001	      0.00000000	      0.00000000	     -0.95619239	     -5.01904830	    -15.32291932	     42.32173230	     90.00000001	      0.00000000	      0.00000000
